<?xml version="1.0" standalone="no"?>
<svg viewBox="0 0 200 200" xmlns="http://www.w3.org/2000/svg">
  <path fill="#772974" d="M34.4,-56.3C46.9,-45.4,61,-39.9,70.9,-29.2C80.7,-18.5,86.3,-2.6,79.7,8.2C73.1,19.1,54.5,25.1,41.3,30.1C28.1,35.1,20.4,39.2,11.9,42.6C3.4,46,-5.8,48.7,-12.5,45.4C-19.1,42.1,-23.1,32.8,-35.7,26.4C-48.3,20,-69.4,16.5,-71.6,9.5C-73.9,2.5,-57.1,-8,-49.2,-21.3C-41.3,-34.7,-42.3,-51,-35.6,-64.6C-28.8,-78.2,-14.4,-89,-1.8,-86.3C10.9,-83.6,21.8,-67.3,34.4,-56.3Z" transform="translate(100 100)" />
</svg>
